HIERARCHY
ROOT hip
{
  OFFSET 0 0 0
  CHANNELS 6 Xposition Yposition Zposition Zrotation Yrotation Xrotation
  JOINT abdomen
  {
    OFFSET 0 20.6881 -0.73152
    CHANNELS 3 Zrotation Xrotation Yrotation
    JOINT chest
    {
      OFFSET 0 11.7043 -0.48768
      CHANNELS 3 Zrotation Xrotation Yrotation
      JOINT neck
      {
        OFFSET 0 22.1894 -2.19456
        CHANNELS 3 Zrotation Xrotation Yrotation
        JOINT head
        {
          OFFSET -0.24384 7.07133 1.2192
          CHANNELS 3 Zrotation Xrotation Yrotation
          JOINT leftEye
          {
            OFFSET 4.14528 8.04674 8.04672
            CHANNELS 3 Zrotation Xrotation Yrotation
            End Site
            {
              OFFSET 1 0 0
            }
          }
          JOINT rightEye
          {
            OFFSET -3.6576 8.04674 8.04672
            CHANNELS 3 Zrotation Xrotation Yrotation
            End Site
            {
              OFFSET 1 0 0
            }
          }
        }
      }
      JOINT rCollar
      {
        OFFSET -2.68224 19.2634 -4.8768
        CHANNELS 3 Zrotation Xrotation Yrotation
        JOINT rShldr
        {
          OFFSET -8.77824 -1.95073 1.46304
          CHANNELS 3 Zrotation Xrotation Yrotation
          JOINT rForeArm
          {
            OFFSET -28.1742 -1.7115 0.48768
            CHANNELS 3 Zrotation Xrotation Yrotation
            JOINT rHand
            {
              OFFSET -22.5879 0.773209 7.07136
              CHANNELS 3 Zrotation Xrotation Yrotation
              JOINT rThumb1
              {
                OFFSET -1.2192 -0.487915 3.41376
                CHANNELS 3 Zrotation Xrotation Yrotation
                JOINT rThumb2
                {
                  OFFSET -3.37035 -0.52449 3.41376
                  CHANNELS 3 Zrotation Xrotation Yrotation
                  End Site
                  {
                    OFFSET -1.78271 -1.18214 1.43049
                  }
                }
              }
              JOINT rIndex1
              {
                OFFSET -7.75947 0.938293 5.60832
                CHANNELS 3 Zrotation Xrotation Yrotation
                JOINT rIndex2
                {
                  OFFSET -2.54057 -0.884171 1.56538
                  CHANNELS 3 Zrotation Xrotation Yrotation
                  End Site
                  {
                    OFFSET -1.62519 -0.234802 1.16502
                  }
                }
              }
              JOINT rMid1
              {
                OFFSET -8.24714 1.18213 3.41376
                CHANNELS 3 Zrotation Xrotation Yrotation
                JOINT rMid2
                {
                  OFFSET -3.10165 -0.590103 1.0647
                  CHANNELS 3 Zrotation Xrotation Yrotation
                  End Site
                  {
                    OFFSET -2.48547 -0.328903 0.83742
                  }
                }
              }
              JOINT rRing1
              {
                OFFSET -8.82822 0.546677 1.51678
                CHANNELS 3 Zrotation Xrotation Yrotation
                JOINT rRing2
                {
                  OFFSET -2.60934 -0.819778 -0.0198488
                  CHANNELS 3 Zrotation Xrotation Yrotation
                  End Site
                  {
                    OFFSET -2.33842 -0.294052 0.168128
                  }
                }
              }
              JOINT rPinky1
              {
                OFFSET -8.27202 -0.0477905 -0.4584
                CHANNELS 3 Zrotation Xrotation Yrotation
                JOINT rPinky2
                {
                  OFFSET -1.82734 -0.647385 -0.700984
                  CHANNELS 3 Zrotation Xrotation Yrotation
                  End Site
                  {
                    OFFSET -1.69225 -0.51767 -0.607171
                  }
                }
              }
            }
          }
        }
      }
      JOINT lCollar
      {
        OFFSET 2.68224 19.2634 -4.8768
        CHANNELS 3 Zrotation Xrotation Yrotation
        JOINT lShldr
        {
          OFFSET 8.77824 -1.95073 1.46304
          CHANNELS 3 Zrotation Xrotation Yrotation
          JOINT lForeArm
          {
            OFFSET 28.1742 -1.7115 0.48768
            CHANNELS 3 Zrotation Xrotation Yrotation
            JOINT lHand
            {
              OFFSET 22.5879 0.773209 7.07136
              CHANNELS 3 Zrotation Xrotation Yrotation
              JOINT lThumb1
              {
                OFFSET 1.2192 -0.487915 3.41376
                CHANNELS 3 Zrotation Xrotation Yrotation
                JOINT lThumb2
                {
                  OFFSET 3.37035 -0.52449 3.41376
                  CHANNELS 3 Zrotation Xrotation Yrotation
                  End Site
                  {
                    OFFSET 1.78271 -1.18214 1.43049
                  }
                }
              }
              JOINT lIndex1
              {
                OFFSET 7.75947 0.938293 5.60832
                CHANNELS 3 Zrotation Xrotation Yrotation
                JOINT lIndex2
                {
                  OFFSET 2.54057 -0.884171 1.56538
                  CHANNELS 3 Zrotation Xrotation Yrotation
                  End Site
                  {
                    OFFSET 1.62519 -0.234802 1.16502
                  }
                }
              }
              JOINT lMid1
              {
                OFFSET 8.24714 1.18213 3.41376
                CHANNELS 3 Zrotation Xrotation Yrotation
                JOINT lMid2
                {
                  OFFSET 3.10165 -0.590103 1.0647
                  CHANNELS 3 Zrotation Xrotation Yrotation
                  End Site
                  {
                    OFFSET 2.48547 -0.328903 0.83742
                  }
                }
              }
              JOINT lRing1
              {
                OFFSET 8.82822 0.546677 1.51678
                CHANNELS 3 Zrotation Xrotation Yrotation
                JOINT lRing2
                {
                  OFFSET 2.60934 -0.819778 -0.0198488
                  CHANNELS 3 Zrotation Xrotation Yrotation
                  End Site
                  {
                    OFFSET 2.33842 -0.294052 0.168128
                  }
                }
              }
              JOINT lPinky1
              {
                OFFSET 8.27202 -0.0477905 -0.4584
                CHANNELS 3 Zrotation Xrotation Yrotation
                JOINT lPinky2
                {
                  OFFSET 1.82734 -0.647385 -0.700984
                  CHANNELS 3 Zrotation Xrotation Yrotation
                  End Site
                  {
                    OFFSET 1.69225 -0.51767 -0.607171
                  }
                }
              }
            }
          }
        }
      }
    }
  }
  JOINT rButtock
  {
    OFFSET -8.77824 4.35084 1.2192
    CHANNELS 3 Zrotation Xrotation Yrotation
    JOINT rThigh
    {
      OFFSET 0 -1.70687 -2.19456
      CHANNELS 3 Zrotation Xrotation Yrotation
      JOINT rShin
      {
        OFFSET 0 -36.8199 0.73152
        CHANNELS 3 Zrotation Xrotation Yrotation
        JOINT rFoot
        {
          OFFSET 0.73152 -45.1104 -5.12064
          CHANNELS 3 Zrotation Xrotation Yrotation
          End Site
          {
            OFFSET -1.1221 -3.69964 12.103
          }
        }
      }
    }
  }
  JOINT lButtock
  {
    OFFSET 8.77824 4.35084 1.2192
    CHANNELS 3 Zrotation Xrotation Yrotation
    JOINT lThigh
    {
      OFFSET 0 -1.70687 -2.19456
      CHANNELS 3 Zrotation Xrotation Yrotation
      JOINT lShin
      {
        OFFSET 0 -36.8199 0.73152
        CHANNELS 3 Zrotation Xrotation Yrotation
        JOINT lFoot
        {
          OFFSET -0.73152 -45.1104 -5.12064
          CHANNELS 3 Zrotation Xrotation Yrotation
          End Site
          {
            OFFSET 1.1221 -3.69964 12.103
          }
        }
      }
    }
  }
}
MOTION
Frames:	4
Frame Time:	0.03333
5.790854524821043 56.958162784576416 -54.51868688687682 4.247094631195068 33.57783508300781 5.770938873291016 -1.919970154762268 10.82974910736084 0.6775996088981628 3.7356414794921875 -12.082671165466309 0.6150691509246826 -8.717036247253418 16.36223602294922 -10.06875991821289 6.385860443115234 -26.70049285888672 -18.210309982299805 0.053011469542980194 0.22421762347221375 0.3725299835205078 -0.25058966875076294 0.13551898300647736 -0.030795587226748466 0.07346545159816742 -0.08366923034191132 -0.04756849259138107 23.841732025146484 19.38665199279785 51.94084930419922 -24.785276412963867 -47.86265182495117 99.66315460205078 0.2982836961746216 -1.9498398303985596 -0.2321350872516632 0.16820508241653442 -0.022297702729701996 0.106819286942482 0.232161745429039 -0.05371541529893875 -0.044282373040914536 0.06226310133934021 0.036537978798151016 -0.138536274433136 7.869433403015137 5.37357759475708 0.1715715378522873 0.10760222375392914 -0.103700190782547 -0.31400540471076965 2.890418767929077 1.1716679334640503 0.38360655307769775 0.1714000701904297 -0.09525593370199203 -0.4288672208786011 9.994921684265137 0.5864323973655701 -0.041511017829179764 0.03879982978105545 -0.10168327391147614 0.13260528445243835 2.3437466621398926 -0.8230624794960022 -0.22073177993297577 0.06284169107675552 0.10817550122737885 -0.09174259006977081 36.35713195800781 62.92793655395508 -123.76586151123047 28.750307083129883 -34.02688217163086 -73.16068267822266 1.2356120347976685 -30.981807708740234 4.695389270782471 0.15701350569725037 -0.21746669709682465 0.060093954205513 0.41292765736579895 -0.04232385382056236 -0.12969516217708588 -0.38817480206489563 -0.07506439834833145 0.009693716652691364 -7.566267967224121 5.518346309661865 -0.30065059661865234 0.06340143084526062 -0.07955428212881088 0.0396059975028038 -3.133235454559326 0.9344447255134583 -0.31068557500839233 0.08575063943862915 0.03350111469626427 0.09562001377344131 -10.1149263381958 0.8581390976905823 -0.29942598938941956 0.16664353013038635 -0.32528918981552124 -0.09200312942266464 -2.5080394744873047 -0.8354493975639343 0.49252182245254517 0.3340781331062317 0.3022434711456299 -0.06450844556093216 -52.32423400878906 -43.13386535644531 -69.28329467773438 -1.1802477836608887 74.11783599853516 2.1006529331207275 -7.339598655700684 -4.921555519104004 -23.872661590576172 -0.21041034162044525 0.03862401098012924 0.01062572281807661 26.703079223632812 -13.117640495300293 12.97208309173584 0.2721121609210968 69.89241027832031 -3.514007091522217 3.4877054691314697 -10.443782806396484 23.41775131225586
6.3704743050038815 56.51206970214844 -56.0994484461844 4.582547187805176 35.21478271484375 7.129949569702148 -3.5723137855529785 9.908638954162598 0.2886439263820648 4.080811023712158 -12.115063667297363 0.4509982764720917 -9.225757598876953 15.641568183898926 -10.357231140136719 6.313993453979492 -26.06852912902832 -18.83446502685547 0.038747094571590424 0.27223530411720276 0.2707241475582123 -0.3883804976940155 0.1540738195180893 0.006420579738914967 0.05459858104586601 -0.1812983900308609 0.16861648857593536 32.466400146484375 20.221403121948242 42.5768928527832 -25.20336151123047 -47.66556167602539 98.91780853271484 -0.23218904435634613 17.446537017822266 2.7319939136505127 0.1761295050382614 -0.09927152097225189 -0.03552718088030815 0.20913302898406982 -0.1782151162624359 0.12385731935501099 0.05989593267440796 0.030103540048003197 -0.18752521276474 7.9911789894104 5.403613567352295 0.15314772725105286 0.15770111978054047 -0.2348453402519226 -0.268265038728714 2.8336989879608154 1.1706804037094116 0.4803861677646637 0.2018263339996338 -0.10374044626951218 -0.2939213514328003 10.189092636108398 0.6128150224685669 -0.06123251095414162 0.07443877309560776 -0.03647427633404732 0.2250247299671173 2.5295376777648926 -0.8221582770347595 -0.15290187299251556 0.1987307220697403 0.23402979969978333 -0.10440507531166077 26.298254013061523 73.07540130615234 -110.21029663085938 28.673887252807617 -38.45463180541992 -80.36268615722656 4.953032493591309 -53.00807189941406 10.32995891571045 0.08958666026592255 -0.32363012433052063 0.06300149112939835 0.3881966471672058 -0.008329988457262516 -0.08741428703069687 -0.4391651451587677 -0.016904501244425774 -0.03673344478011131 -7.740062236785889 5.498490810394287 -0.22654084861278534 0.16200827062129974 -0.14432090520858765 -0.029774833470582962 -3.0273778438568115 0.7613875865936279 -0.29508736729621887 0.029543768614530563 0.07253874838352203 -0.13309502601623535 -10.06982421875 0.8435694575309753 -0.19015346467494965 0.20332308113574982 -0.35709112882614136 -0.24415990710258484 -2.4062647819519043 -0.9311714768409729 0.5279396176338196 0.3695933222770691 0.3369380533695221 -0.10520773380994797 -55.336360931396484 -42.57406234741211 -71.55647277832031 -1.8102153539657593 73.47550964355469 2.587494373321533 -6.727262496948242 -4.444157600402832 -23.706005096435547 -0.1972556859254837 0.08235077559947968 -0.04180319607257843 27.208070755004883 -9.90628719329834 14.064842224121094 0.4208107888698578 64.242919921875 -3.741974115371704 2.5307841300964355 -8.740338325500488 22.602840423583984
6.778903678059578 56.086182594299316 -57.913711201399565 5.9163432121276855 37.07866668701172 8.950382232666016 -5.223999977111816 9.447341918945312 -0.5614089369773865 4.653520584106445 -11.957538604736328 0.16622665524482727 -9.63718318939209 15.212984085083008 -10.623507499694824 6.416224002838135 -26.251089096069336 -19.42147445678711 -0.019321175292134285 0.23320311307907104 0.2625134587287903 -0.45157238841056824 0.10730081051588058 0.03312557190656662 0.005890779662877321 -0.19902533292770386 0.365602970123291 40.85477828979492 17.983274459838867 35.68112564086914 -26.5491943359375 -45.740570068359375 94.79457092285156 -1.0044418573379517 26.318471908569336 4.3482985496521 0.07394619286060333 -0.07580331712961197 -0.23099973797798157 0.16483061015605927 -0.15927472710609436 0.17495642602443695 0.07467435300350189 0.03565330058336258 -0.12865403294563293 7.957672119140625 5.416549205780029 0.22147701680660248 0.31431323289871216 -0.2982730567455292 -0.2219850718975067 2.7642226219177246 1.0965394973754883 0.3574112355709076 0.19470618665218353 -0.0028212033212184906 -0.10883750766515732 10.442673683166504 0.6437110900878906 -0.019504547119140625 0.10003875195980072 0.06214706599712372 0.20943868160247803 2.6891767978668213 -0.7365861535072327 -0.020653657615184784 0.32497531175613403 0.23919633030891418 -0.11598145961761475 -2.1587910652160645 79.1306381225586 -78.84313201904297 28.160913467407227 -41.167293548583984 -84.80329895019531 14.931840896606445 -70.059814453125 21.636207580566406 0.07351285964250565 -0.32779115438461304 -0.06150786578655243 0.2428244948387146 0.07645422965288162 -0.1190309152007103 -0.42241543531417847 -0.03377154842019081 -0.07779309153556824 -7.867447853088379 5.488009929656982 -0.22626391053199768 0.26538920402526855 -0.10923776030540466 -0.17343831062316895 -2.851722240447998 0.6882293820381165 -0.1825525164604187 -0.04341738671064377 0.0034994613379240036 -0.2932422161102295 -10.200260162353516 0.7937920093536377 -0.1631420999765396 0.18122732639312744 -0.26789700984954834 -0.21642960608005524 -2.3578317165374756 -0.9367167353630066 0.48552006483078003 0.31540289521217346 0.4078756868839264 -0.17726708948612213 -58.99650192260742 -42.602195739746094 -73.80160522460938 -2.6516647338867188 73.17630767822266 3.012094020843506 -5.9129414558410645 -3.705599784851074 -23.94020652770996 -0.1873764842748642 0.009442804381251335 -0.06769338250160217 26.50426483154297 -7.068729400634766 14.730546951293945 0.7593600749969482 58.77919006347656 -4.03981876373291 2.140199899673462 -7.705535411834717 22.537107467651367
6.961809936910868 55.874621868133545 -59.82928844168782 7.538525581359863 39.39389419555664 11.164860725402832 -6.875920295715332 9.354825973510742 -1.7528451681137085 5.539502143859863 -11.799956321716309 -0.20923182368278503 -9.92092514038086 15.344489097595215 -10.901965141296387 7.007440090179443 -26.876832962036133 -19.907814025878906 0.0011284895008429885 0.06884163618087769 0.24627573788166046 -0.38381993770599365 0.03388292342424393 0.014737032353878021 0.008259840309619904 -0.1019553691148758 0.5383939146995544 47.17452621459961 13.6896333694458 32.15177917480469 -27.846351623535156 -42.79899597167969 89.17638397216797 -1.0482686758041382 24.60495376586914 4.130976676940918 0.058336175978183746 0.06719474494457245 -0.26292020082473755 0.1683741807937622 -0.008444939740002155 0.12246055901050568 0.07364970445632935 0.036465827375650406 -0.03058207407593727 7.820401191711426 5.352075576782227 0.31150075793266296 0.4573155641555786 -0.27216023206710815 -0.23859736323356628 2.845184087753296 0.9657009840011597 0.1236753910779953 0.2116166651248932 0.1267833411693573 -0.035826150327920914 10.617857933044434 0.727347195148468 0.07465999573469162 0.1015351265668869 0.06586674600839615 0.06273743510246277 2.6527891159057617 -0.5900743007659912 -0.01721004769206047 0.3656304180622101 0.18357083201408386 -0.16303345561027527 -40.775089263916016 79.33700561523438 -37.18284225463867 27.744895935058594 -42.288169860839844 -86.9757308959961 39.32308578491211 -79.63374328613281 46.897884368896484 0.17635422945022583 -0.18724463880062103 -0.2389628291130066 0.08660056442022324 0.12424976378679276 -0.17393571138381958 -0.3386436998844147 -0.11420664191246033 -0.19176085293293 -7.716177940368652 5.545748710632324 -0.37509989738464355 0.3552839159965515 0.0506603829562664 -0.20477329194545746 -2.730970621109009 0.7658386826515198 -0.20701205730438232 -0.09843070805072784 -0.2053663283586502 -0.25061702728271484 -10.455989837646484 0.7207029461860657 -0.11816903948783875 0.11472579836845398 -0.07906683534383774 -0.027910608798265457 -2.3238210678100586 -1.02667236328125 0.3911941647529602 0.24149653315544128 0.5799631476402283 -0.2304476946592331 -63.037696838378906 -43.38115692138672 -74.95551300048828 -3.2976341247558594 73.26500701904297 3.1136362552642822 -4.87139368057251 -2.4129183292388916 -24.074993133544922 -0.16773933172225952 -0.09302566200494766 -0.05311432108283043 25.030885696411133 -5.106082439422607 15.212884902954102 0.6192843317985535 53.3597526550293 -3.9296436309814453 2.2666516304016113 -7.671144008636475 23.377588272094727
